<?xml version="1.0" encoding="utf-8"?>
<!-- Svg Vector Icons : http://www.onlinewebfonts.com/icon -->
<!DOCTYPE svg PUBLIC "-//W3C//DTD SVG 1.1//EN" "http://www.w3.org/Graphics/SVG/1.1/DTD/svg11.dtd">
<svg version="1.1" xmlns="http://www.w3.org/2000/svg" xmlns:xlink="http://www.w3.org/1999/xlink" x="0px" y="0px" viewBox="0 0 1000 1000" enable-background="new 0 0 1000 1000" xml:space="preserve">
<metadata> Svg Vector Icons : http://www.onlinewebfonts.com/icon </metadata>
<g><g transform="translate(0.000000,511.000000) scale(0.100000,-0.100000)"><path fill="#ffffff" d="M3865.6,3442.2c-30.7-24.5-63.4-77.7-75.6-118.6c-26.6-102.2-26.6-1745.8,0-1848c12.3-40.9,45-94,75.6-118.6c49.1-38.8,79.7-40.9,539.7-40.9h488.6V876.6V437.1H3121.4c-1721.3,0-1776.5-2-1839.9-40.9c-42.9-26.6-71.5-63.4-85.9-116.5c-12.3-45-22.5-300.5-22.5-613.3v-535.6l-480.4-6.1l-480.4-6.1l-55.2-57.2L100-993.9v-1075.3v-1075.3l67.5-59.3l65.4-59.3h1165.2h1165.2l65.4,59.3l67.5,59.3l6.1,1050.8c4.1,1020.1,4.1,1050.8-36.8,1116.2c-22.5,36.8-65.4,75.6-94,85.9c-28.6,12.3-257.6,20.4-509,20.4h-457.9l4.1,435.4l4.1,433.4l1641.6,6.1l1639.5,4.1v-439.5v-439.5h-464.1c-425.2,0-472.2-4.1-531.5-40.9c-42.9-26.6-71.5-63.4-85.9-116.5c-28.6-104.3-30.7-1970.7-2-2075c12.3-40.9,45-94,75.6-118.6c51.1-40.9,75.6-40.9,1204.1-40.9c848.4,0,1165.2,6.1,1204.1,24.5c112.4,51.1,112.4,49.1,112.4,1179.6v1044.6l-59.3,65.4l-59.3,67.5l-482.5,6.1l-482.5,6.1v439.5V7.8l1518.9-4.1l1516.9-6.1l6.1-433.4l4.1-433.4l-480.4-6.1l-480.4-6.1l-55.2-57.2l-57.2-55.2v-1075.3v-1075.3l67.5-59.3l65.4-59.3H8594h1165.2l65.4,59.3l67.5,59.3l6.1,1050.8c4.1,1020.1,4.1,1050.8-36.8,1116.2c-22.5,36.8-65.4,75.6-94,85.9c-28.6,12.3-257.6,20.4-509,20.4h-457.9l-6.1,592.8l-6.1,592.8l-57.2,55.2l-55.2,57.2L6999.5,433l-1676.3,4.1v439.5v439.5h368h368l65.4,59.3l67.5,59.3v964.9v964.9l-67.5,59.3l-65.4,59.3H4987.9C3941.2,3483.1,3916.7,3483.1,3865.6,3442.2z M5772.9,2399.6v-654.2h-776.8h-776.8v654.2v654.2h776.8h776.8V2399.6z M2273.1-2071.3l4.1-762.5h-879h-879v752.3c0,415,6.1,760.5,14.3,766.6c6.1,8.2,400.7,12.3,872.9,10.2l860.6-6.1L2273.1-2071.3z M5977.3-2067.2v-766.6h-866.8c-809.5,0-868.8,2-877,36.8c-12.3,42.9-12.3,1459.6,0,1482.1c4.1,8.2,398.6,14.3,877,14.3h866.8V-2067.2z M9469-2071.3l4.1-762.5h-879h-879v766.6v766.6l875-4.1l872.9-6.1L9469-2071.3z"/></g></g>
</svg>