<?xml version="1.0" standalone="no"?>
<!DOCTYPE svg PUBLIC "-//W3C//DTD SVG 20010904//EN"
 "http://www.w3.org/TR/2001/REC-SVG-20010904/DTD/svg10.dtd">
<svg version="1.0" xmlns="http://www.w3.org/2000/svg"
 width="700.000000pt" height="700.000000pt" viewBox="0 0 700.000000 700.000000"
 preserveAspectRatio="xMidYMid meet">
<metadata>
Created by potrace 1.11, written by Peter Selinger 2001-2013
</metadata>
<g transform="translate(0.000000,700.000000) scale(0.100000,-0.100000)"
fill="#000000" stroke="none">
<path d="M2752 5850 c-42 -10 -78 -44 -93 -87 -6 -18 -12 -93 -14 -166 -6
-181 -5 -831 0 -1001 4 -125 7 -143 29 -181 40 -67 46 -68 415 -71 179 -1 328
-2 331 -3 3 -1 5 -138 5 -306 l0 -305 -1080 -1 c-1106 0 -1344 -3 -1405 -14
-50 -9 -94 -53 -106 -108 -3 -12 -8 -193 -11 -402 -3 -209 -7 -382 -10 -385
-5 -6 -85 -8 -418 -10 l-240 -1 -42 -42 -43 -41 0 -752 0 -751 46 -41 45 -42
815 0 815 0 49 41 49 42 1 481 c3 982 3 987 -26 1035 -41 69 -52 70 -459 73
-148 1 -273 6 -276 10 -6 10 -1 589 5 595 2 3 519 6 1148 8 l1144 4 -1 -307 0
-307 -290 -2 c-159 -1 -309 -4 -333 -7 -106 -14 -138 -66 -143 -231 -5 -194
-3 -1157 3 -1248 4 -72 10 -94 32 -127 15 -23 38 -43 54 -47 15 -5 387 -8 827
-8 868 0 851 -1 880 55 23 45 28 183 29 860 l1 655 -45 46 -45 47 -285 2
c-157 1 -307 3 -334 4 l-50 1 -1 290 c0 160 1 298 3 307 4 16 70 17 1059 13
580 -2 1057 -5 1059 -8 7 -7 13 -583 6 -594 -4 -5 -52 -10 -107 -10 -55 0
-202 -2 -327 -3 l-227 -2 -41 -38 -42 -38 0 -752 -1 -751 44 -45 43 -44 821 0
820 0 46 43 45 42 2 715 c2 748 1 772 -41 818 -47 51 -50 52 -439 54 l-288 2
-1 121 c0 66 -2 252 -4 414 l-3 293 -40 40 -40 41 -1168 3 c-642 3 -1170 6
-1173 9 -10 10 -6 605 4 608 6 2 122 3 258 3 l248 -1 47 41 47 41 0 677 0 677
-47 40 -47 39 -728 -1 c-400 -1 -743 -5 -761 -9z m1288 -747 l0 -458 -543 0
-542 0 -1 450 c0 248 1 453 3 458 2 4 247 7 544 7 l539 0 0 -457z m139 -2598
c7 -8 8 -1044 0 -1057 -4 -6 -225 -8 -603 -6 -490 2 -598 5 -605 17 -18 28
-19 1014 -1 1036 9 10 75 13 323 14 171 1 312 3 313 4 5 5 568 -3 573 -8z
m-2593 -40 c2 -44 6 -992 5 -1012 -1 -10 -131 -13 -614 -13 l-614 0 2 523 c1
288 5 529 9 535 5 9 164 11 609 9 l602 -2 1 -40z m5036 21 c2 -12 5 -252 7
-533 l3 -513 -616 0 -616 0 0 536 0 535 609 -2 609 -2 4 -21z"/>
</g>
</svg>
